<?xml version="1.0" standalone="no"?>
<svg xmlns:xlink="http://www.w3.org/1999/xlink" id="wave" style="transform:rotate(180deg); transition: 0.3s" viewBox="0 0 1440 490" version="1.1" xmlns="http://www.w3.org/2000/svg"><defs><linearGradient id="sw-gradient-0" x1="0" x2="0" y1="1" y2="0"><stop stop-color="rgba(12, 12, 40, 0.95)" offset="0%"/><stop stop-color="rgba(63, 193, 201, 1)" offset="100%"/></linearGradient></defs><path style="transform:translate(0, 0px); opacity:1" fill="url(#sw-gradient-0)" d="M0,294L30,253.2C60,212,120,131,180,130.7C240,131,300,212,360,261.3C420,310,480,327,540,285.8C600,245,660,147,720,155.2C780,163,840,278,900,285.8C960,294,1020,196,1080,179.7C1140,163,1200,229,1260,277.7C1320,327,1380,359,1440,343C1500,327,1560,261,1620,212.3C1680,163,1740,131,1800,114.3C1860,98,1920,98,1980,147C2040,196,2100,294,2160,351.2C2220,408,2280,425,2340,383.8C2400,343,2460,245,2520,228.7C2580,212,2640,278,2700,269.5C2760,261,2820,180,2880,155.2C2940,131,3000,163,3060,220.5C3120,278,3180,359,3240,400.2C3300,441,3360,441,3420,408.3C3480,376,3540,310,3600,310.3C3660,310,3720,376,3780,392C3840,408,3900,376,3960,326.7C4020,278,4080,212,4140,196C4200,180,4260,212,4290,228.7L4320,245L4320,490L4290,490C4260,490,4200,490,4140,490C4080,490,4020,490,3960,490C3900,490,3840,490,3780,490C3720,490,3660,490,3600,490C3540,490,3480,490,3420,490C3360,490,3300,490,3240,490C3180,490,3120,490,3060,490C3000,490,2940,490,2880,490C2820,490,2760,490,2700,490C2640,490,2580,490,2520,490C2460,490,2400,490,2340,490C2280,490,2220,490,2160,490C2100,490,2040,490,1980,490C1920,490,1860,490,1800,490C1740,490,1680,490,1620,490C1560,490,1500,490,1440,490C1380,490,1320,490,1260,490C1200,490,1140,490,1080,490C1020,490,960,490,900,490C840,490,780,490,720,490C660,490,600,490,540,490C480,490,420,490,360,490C300,490,240,490,180,490C120,490,60,490,30,490L0,490Z"/></svg>